<svg width="512" height="512" fill="#B0DEFB" viewBox="0 -2 480.288 480" xmlns="http://www.w3.org/2000/svg"><path d="m472.289062 20.308594h-72c-4.417968 0-8 3.582031-8 8v4.160156l-67.753906-27.261719c-15.101562-6.054687-31.828125-6.699219-47.351562-1.824219-.253906.085938-.511719.175782-.800782.289063l-94.3125 40.636719h-174.070312c-4.417969 0-8 3.582031-8 8v144c0 4.417968 3.582031 8 8 8h256c4.417969 0 8-3.582032 8-8v-56h7.199219l54.921875 15.699218c.714844.199219 1.457031.300782 2.199218.300782.65625 0 1.308594-.078125 1.945313-.238282l63-15.761718h71.023437c4.417969 0 8-3.582032 8-8v-104c0-4.417969-3.582031-8-8-8zm-216.289062 56h-12.992188c-4.890624-4.1875-8.382812-9.769532-10.007812-16h23zm-30.871094 4c-12.917968 6.917968-19.457031 21.742187-15.859375 35.945312 3.597657 14.203125 16.40625 24.125 31.058594 24.054688h15.671875v8.722656c-20.101562 3.433594-35.84375 19.179688-39.28125 39.277344h-161.4375c-3.4375-20.097656-19.179688-35.84375-39.28125-39.277344v-49.441406c20.101562-3.433594 35.84375-19.179688 39.28125-39.28125h161.519531c1.222657 7.214844 4.070313 14.050781 8.328125 20zm-186.265625-20c-2.925781 11.195312-11.667969 19.9375-22.863281 22.867187v-22.867187zm-22.863281 105.136718c11.195312 2.929688 19.9375 11.671876 22.863281 22.863282h-22.863281zm217.136719 22.863282c2.925781-11.191406 11.667969-19.933594 22.863281-22.863282v22.863282zm103.289062-48.277344-53.9375-15.417969c-.714843-.199219-1.457031-.300781-2.199219-.304687h-40c-8.835937 0-16-7.160156-16-16 0-8.835938 7.164063-16 16-16h59.359376c4.417968 0 8-3.582032 8-8 0-4.417969-3.582032-8-8-8h-27.648438v-24c0-4.417969-3.582031-8-8-8h-41.496094l59.894532-25.78125c11.886718-3.644532 24.664062-3.105469 36.203124 1.527344l73.71875 29.65625v76.359374zm127.863281-15.722656h-56v-88h56zm0 0"/><path d="m386.144531 356.308594h-34.144531v-88c0-4.417969-3.582031-8-8-8h-21.921875c.210937-.605469.464844-1.191406.625-1.824219l.242187-.949219c2.851563-11.304687-3.015624-22.992187-13.789062-27.449218-10.769531-4.460938-23.183594-.347657-29.15625 9.664062-5.992188-9.988281-18.394531-14.082031-29.15625-9.617188-10.757812 4.464844-16.621094 16.136719-13.78125 27.433594l.242188.917969c.152343.632813.414062 1.21875.617187 1.824219h-21.921875c-4.417969 0-8 3.582031-8 8v72h-6.878906l-45.402344-12.972656c-7.75-2.21875-15.992188-2.039063-23.640625.511718l-13.964844 4.65625-38.699219 5.695313h-71.414062c-4.417969 0-8 3.582031-8 8v106.109375c0 4.417968 3.582031 8 8 8h72c4.417969 0 8-3.582032 8-8v-6.269532l56.550781 22.757813c22.34375 8.964844 47.097657 9.917969 70.066407 2.707031l180.496093-56.851562c14.050781-4.433594 22.769531-18.453125 20.53125-33.015625s-14.765625-25.316407-29.5-25.328125zm-146.144531-16h32v48h-4.449219c2.878907-4.839844 4.417969-10.363282 4.449219-16 0-17.671875-14.328125-32-32-32zm48 0h48v48h-48zm48-16h-48v-48h48zm-43.199219-74.300782c1.007813-4.03125 5.09375-6.480468 9.125-5.46875 4.027344 1.007813 6.476563 5.09375 5.464844 9.125l-.238281.941407c-.832032 3.351562-3.84375 5.707031-7.296875 5.703125h-9.597657zm-40 4.574219-.234375-.917969c-1.007812-4.03125 1.441406-8.117187 5.46875-9.125 4.03125-1.011718 8.117188 1.4375 9.125 5.46875l2.59375 10.300782h-9.601562c-3.480469.023437-6.523438-2.34375-7.351563-5.726563zm7.320313 21.726563h11.878906v48h-48v-48zm-188.121094 168h-56v-90.109375h56zm318.304688-44.917969-180.496094 56.847656c-19.433594 6.105469-40.382813 5.296875-59.289063-2.289062l-62.519531-25.152344v-75.6875l33.167969-4.886719v-.152344c.464843-.011718.929687-.070312 1.382812-.167968l14.617188-4.871094c4.585937-1.539062 9.53125-1.644531 14.175781-.304688l46.480469 13.28125c.707031.199219 1.441406.300782 2.175781.300782h40c8.835938 0 16 7.164062 16 16 0 8.839844-7.164062 16-16 16h-56.289062c-4.417969 0-8 3.582031-8 8 0 4.417968 3.582031 8 8 8h160.289062c4.417969 0 8-3.582032 8-8v-24h34.144531c6.832031.015625 12.636719 5.007812 13.671875 11.761718 1.039063 6.753907-3 13.253907-9.511718 15.320313zm0 0"/><path d="m136 172.308594c26.507812 0 48-21.488282 48-48 0-26.507813-21.492188-48-48-48s-48 21.492187-48 48c.027344 26.5 21.5 47.976562 48 48zm0-80c17.671875 0 32 14.328125 32 32 0 17.675781-14.328125 32-32 32s-32-14.324219-32-32c0-17.671875 14.328125-32 32-32zm0 0"/></svg>