<svg width="512" height="512" fill="#B0DEFB" viewBox="0 0 512 512" xmlns="http://www.w3.org/2000/svg"><path d="m504 408c-4.425781 0-8-3.574219-8-8v-88c0-4.425781 3.574219-8 8-8s8 3.574219 8 8v88c0 4.425781-3.574219 8-8 8zm0 0"/><path d="m504.007812 320c-2.6875 0-5.3125-1.351562-6.824218-3.808594l-64-104c-2.3125-3.765625-1.144532-8.695312 2.617187-11.007812 3.773438-2.328125 8.695313-1.152344 11.007813 2.617187l64 104c2.3125 3.765625 1.144531 8.695313-2.617188 11.007813-1.3125.808594-2.75 1.191406-4.183594 1.191406zm0 0"/><path d="m464.007812 304c-2.6875 0-5.3125-1.351562-6.824218-3.808594l-39.390625-64.015625c-2.320313-3.769531-1.144531-8.695312 2.613281-11.007812 3.777344-2.320313 8.691406-1.152344 11.007812 2.617187l39.394532 64.015625c2.320312 3.765625 1.144531 8.695313-2.617188 11.007813-1.3125.808594-2.75 1.191406-4.183594 1.191406zm0 0"/><path d="m440 216h-104c-4.425781 0-8-3.574219-8-8s3.574219-8 8-8h104c4.425781 0 8 3.574219 8 8s-3.574219 8-8 8zm0 0"/><path d="m336 384c-4.425781 0-8-3.574219-8-8v-224c0-4.425781 3.574219-8 8-8s8 3.574219 8 8v224c0 4.425781-3.574219 8-8 8zm0 0"/><path d="m336 360h-320c-4.425781 0-8-3.574219-8-8s3.574219-8 8-8h320c4.425781 0 8 3.574219 8 8s-3.574219 8-8 8zm0 0"/><path d="m16 408c-4.425781 0-8-3.574219-8-8v-80c0-4.425781 3.574219-8 8-8s8 3.574219 8 8v80c0 4.425781-3.574219 8-8 8zm0 0"/><path d="m336 328h-320c-4.425781 0-8-3.574219-8-8s3.574219-8 8-8h320c4.425781 0 8 3.574219 8 8s-3.574219 8-8 8zm0 0"/><path d="m16 456c-4.425781 0-8-3.574219-8-8v-48c0-4.425781 3.574219-8 8-8s8 3.574219 8 8v48c0 4.425781-3.574219 8-8 8zm0 0"/><path d="m352 456h-184c-4.425781 0-8-3.574219-8-8s3.574219-8 8-8h184c4.425781 0 8 3.574219 8 8s-3.574219 8-8 8zm0 0"/><path d="m504 456c-4.425781 0-8-3.574219-8-8v-48c0-4.425781 3.574219-8 8-8s8 3.574219 8 8v48c0 4.425781-3.574219 8-8 8zm0 0"/><path d="m408 480c-17.648438 0-32-14.351562-32-32s14.351562-32 32-32 32 14.351562 32 32-14.351562 32-32 32zm0-48c-8.824219 0-16 7.175781-16 16s7.175781 16 16 16 16-7.175781 16-16-7.175781-16-16-16zm0 0"/><path d="m408 512c-35.289062 0-64-28.710938-64-64s28.710938-64 64-64 64 28.710938 64 64-28.710938 64-64 64zm0-112c-26.472656 0-48 21.527344-48 48s21.527344 48 48 48 48-21.527344 48-48-21.527344-48-48-48zm0 0"/><path d="m112 480c-17.648438 0-32-14.351562-32-32s14.351562-32 32-32 32 14.351562 32 32-14.351562 32-32 32zm0-48c-8.824219 0-16 7.175781-16 16s7.175781 16 16 16 16-7.175781 16-16-7.175781-16-16-16zm0 0"/><path d="m112 512c-35.289062 0-64-28.710938-64-64s28.710938-64 64-64 64 28.710938 64 64-28.710938 64-64 64zm0-112c-26.472656 0-48 21.527344-48 48s21.527344 48 48 48 48-21.527344 48-48-21.527344-48-48-48zm0 0"/><path d="m56 456h-40c-4.425781 0-8-3.574219-8-8s3.574219-8 8-8h40c4.425781 0 8 3.574219 8 8s-3.574219 8-8 8zm0 0"/><path d="m504 456h-40c-4.425781 0-8-3.574219-8-8s3.574219-8 8-8h40c4.425781 0 8 3.574219 8 8s-3.574219 8-8 8zm0 0"/><path d="m360 304c-4.425781 0-8-3.574219-8-8v-64c0-4.425781 3.574219-8 8-8s8 3.574219 8 8v64c0 4.425781-3.574219 8-8 8zm0 0"/><path d="m464 304h-104c-4.425781 0-8-3.574219-8-8s3.574219-8 8-8h104c4.425781 0 8 3.574219 8 8s-3.574219 8-8 8zm0 0"/><path d="m424.609375 240h-64.609375c-4.425781 0-8-3.574219-8-8s3.574219-8 8-8h64.609375c4.421875 0 8 3.574219 8 8s-3.578125 8-8 8zm0 0"/><path d="m392 304c-4.425781 0-8-3.574219-8-8v-64.015625c0-4.425781 3.574219-8 8-8s8 3.574219 8 8v64.015625c0 4.425781-3.574219 8-8 8zm0 0"/><path d="m368 352h-8c-4.425781 0-8-3.574219-8-8s3.574219-8 8-8h8c4.425781 0 8 3.574219 8 8s-3.574219 8-8 8zm0 0"/><path d="m16 328c-4.425781 0-8-3.574219-8-8v-160c0-4.425781 3.574219-8 8-8s8 3.574219 8 8v160c0 4.425781-3.574219 8-8 8zm0 0"/><path d="m344 160h-336c-4.425781 0-8-3.574219-8-8v-64c0-4.425781 3.574219-8 8-8h336c4.425781 0 8 3.574219 8 8v64c0 4.425781-3.574219 8-8 8zm-328-16h320v-48h-320zm0 0"/><path d="m200 80c-4.425781 0-8-3.574219-8-8 0-8.824219-7.175781-16-16-16s-16 7.175781-16 16c0 4.425781-3.574219 8-8 8s-8-3.574219-8-8c0-17.648438 14.351562-32 32-32s32 14.351562 32 32c0 4.425781-3.574219 8-8 8zm0 0"/><path d="m152 96c-4.425781 0-8-3.574219-8-8v-16c0-4.425781 3.574219-8 8-8s8 3.574219 8 8v16c0 4.425781-3.574219 8-8 8zm0 0"/><path d="m200 96c-4.425781 0-8-3.574219-8-8v-16c0-4.425781 3.574219-8 8-8s8 3.574219 8 8v16c0 4.425781-3.574219 8-8 8zm0 0"/><path d="m256 96c-4.425781 0-8-3.574219-8-8s3.574219-8 8-8c17.648438 0 32-14.351562 32-32s-14.351562-32-32-32c-4.425781 0-8-3.574219-8-8s3.574219-8 8-8c26.472656 0 48 21.527344 48 48s-21.527344 48-48 48zm0 0"/><path d="m200.007812 79.992188c-.335937 0-.671874-.015626-1.007812-.0625-4.382812-.554688-7.488281-4.539063-6.9375-8.921876 3.074219-24.558593 20.386719-71.007812 63.9375-71.007812 4.425781 0 8 3.574219 8 8s-3.574219 8-8 8c-40.304688 0-47.769531 54.679688-48.0625 57-.511719 4.039062-3.960938 6.992188-7.929688 6.992188zm0 0"/><path d="m96 96c-26.472656 0-48-21.527344-48-48s21.527344-48 48-48c4.425781 0 8 3.574219 8 8s-3.574219 8-8 8c-17.648438 0-32 14.351562-32 32s14.351562 32 32 32c4.425781 0 8 3.574219 8 8s-3.574219 8-8 8zm0 0"/><path d="m151.992188 79.992188c-3.96875 0-7.417969-2.953126-7.929688-6.992188-.292969-2.320312-7.757812-57-48.0625-57-4.425781 0-8-3.574219-8-8s3.574219-8 8-8c43.550781 0 60.863281 46.449219 63.9375 71.007812.542969 4.382813-2.554688 8.367188-6.9375 8.921876-.335938.046874-.671875.0625-1.007812.0625zm0 0"/><path d="m152 328c-4.425781 0-8-3.574219-8-8v-232c0-4.425781 3.574219-8 8-8s8 3.574219 8 8v232c0 4.425781-3.574219 8-8 8zm0 0"/><path d="m200 328c-4.425781 0-8-3.574219-8-8v-232c0-4.425781 3.574219-8 8-8s8 3.574219 8 8v232c0 4.425781-3.574219 8-8 8zm0 0"/></svg>